<svg id="Group_239889" data-name="Group 239889" xmlns="http://www.w3.org/2000/svg" width="120.298" height="53.398" viewBox="0 0 120.298 53.398">
  <g id="Group_821" data-name="Group 821" transform="translate(0 0)">
    <g id="Group_820" data-name="Group 820">
      <path id="Path_2020" data-name="Path 2020" d="M148.55,92.475a2.921,2.921,0,0,0,.024-.369v-.035a3.012,3.012,0,0,0-.885-2.121l-1.069-1.069A3.01,3.01,0,0,0,144.548,88h-.134a3.012,3.012,0,0,0-2.072.885l-3.036,3.036-13.661-13.66a3.028,3.028,0,0,1,0-4.278l1.071-1.067a3.019,3.019,0,0,1,4.274,0L147.739,89.66a3.006,3.006,0,0,1,.887,2.082v.124a3.137,3.137,0,0,1-.075.61" transform="translate(-124.709 -65.373)" fill="#ea6b93" fill-rule="evenodd"/>
      <path id="Path_2021" data-name="Path 2021" d="M128.7,150.513a3.016,3.016,0,0,1-2.139-.887l-1.068-1.071a3.019,3.019,0,0,1,0-4.273l13.711-13.712,3.089,3.089a3.021,3.021,0,0,0,4.275,0l1.069-1.068a3.033,3.033,0,0,0,.811-1.462,3.029,3.029,0,0,1-.862,1.752L130.84,149.626a3.011,3.011,0,0,1-2.138.887" transform="translate(-124.609 -104.199)" fill="#dd2a54" fill-rule="evenodd"/>
      <path id="Path_2022" data-name="Path 2022" d="M172.786,126.907a3.028,3.028,0,0,1-2.155-.892l-3.118-3.117,3.065-3.064a3.035,3.035,0,0,1,2.088-.893h.136a3.036,3.036,0,0,1,2.089.893l1.079,1.08a3.039,3.039,0,0,1,.894,2.139v.035a2.827,2.827,0,0,1-.025.372,3.048,3.048,0,0,1-.816,1.475l-1.079,1.077a3.04,3.04,0,0,1-2.158.894" transform="translate(-152.936 -96.435)" fill="#dc104a" fill-rule="evenodd"/>
      <path id="Path_2023" data-name="Path 2023" d="M200.477,76.464h-.155a2.939,2.939,0,0,1-.6-.075,2.909,2.909,0,0,0,.321.025h.129a3.013,3.013,0,0,0,2.075-.887l1.069-1.068a3.01,3.01,0,0,0,.885-2.092v-.091a3.006,3.006,0,0,0-.885-2.092l-3.036-3.037,13.659-13.66a3.024,3.024,0,0,1,4.276,0l1.068,1.069a3.021,3.021,0,0,1,0,4.276L202.538,75.58a3.014,3.014,0,0,1-2.062.884" transform="translate(-174.202 -52.548)" fill="#b7d378" fill-rule="evenodd"/>
      <path id="Path_2024" data-name="Path 2024" d="M162.054,76.287a3.015,3.015,0,0,1-1.752-.861L143.555,58.678a3.017,3.017,0,0,1-.886-2.065v-.148a3.015,3.015,0,0,1,.886-2.065l1.068-1.068a3.022,3.022,0,0,1,4.277,0l13.714,13.711-3.089,3.088a3.017,3.017,0,0,0-.886,2.091v.093a3.01,3.01,0,0,0,.887,2.091l1.067,1.07a3,3,0,0,0,1.462.809" transform="translate(-136.533 -52.446)" fill="#6c972e" fill-rule="evenodd"/>
      <path id="Path_2025" data-name="Path 2025" d="M193.518,104.67h-.129a2.751,2.751,0,0,1-.325-.024,3.009,3.009,0,0,1-1.467-.812l-1.075-1.076a3.036,3.036,0,0,1-.89-2.1v-.094a3.029,3.029,0,0,1,.889-2.1l3.1-3.105,3.053,3.053a3.02,3.02,0,0,1,.889,2.1v.092a3.023,3.023,0,0,1-.889,2.1L195.6,103.78a3.026,3.026,0,0,1-2.086.89" transform="translate(-167.539 -80.834)" fill="#4e9033" fill-rule="evenodd"/>
      <path id="Path_2026" data-name="Path 2026" d="M227.821,151.314h-.093a3.016,3.016,0,0,1-2.092-.886L208.888,133.68a3.011,3.011,0,0,1-.81-2.81,3.013,3.013,0,0,0,.862,2.52l1.067,1.071a3.028,3.028,0,0,0,4.276,0l3.038-3.038,13.66,13.66a3.025,3.025,0,0,1,0,4.276l-1.071,1.069a3.011,3.011,0,0,1-2.091.886" transform="translate(-179.668 -104.397)" fill="#61c6e0" fill-rule="evenodd"/>
      <path id="Path_2027" data-name="Path 2027" d="M217.47,93.745l-3.089-3.088a3.025,3.025,0,0,0-4.278,0l-1.067,1.068a3.023,3.023,0,0,0-.81,1.467,3.014,3.014,0,0,1,.859-1.755l16.75-16.749a3.025,3.025,0,0,1,4.277,0l1.071,1.068a3.013,3.013,0,0,1,.883,2.082v.114a3.011,3.011,0,0,1-.883,2.082Z" transform="translate(-179.816 -66.546)" fill="#1292ba" fill-rule="evenodd"/>
      <path id="Path_2028" data-name="Path 2028" d="M211.936,128.682a3.063,3.063,0,0,1-2.176-.9l-1.087-1.088a2.737,2.737,0,0,1-.052-4.056l1.086-1.088a3.08,3.08,0,0,1,4.353,0l3.142,3.142-3.09,3.09a3.056,3.056,0,0,1-2.174.9" transform="translate(-179.516 -97.564)" fill="#008bae" fill-rule="evenodd"/>
      <path id="Path_2029" data-name="Path 2029" d="M146.174,163.588a3.011,3.011,0,0,1-2.137-.886l-1.068-1.069a3.022,3.022,0,0,1,0-4.277l16.745-16.747a3.019,3.019,0,0,1,2.094-.886h.1a3.235,3.235,0,0,1,.62.074c-.1-.011-.207-.02-.313-.023h-.146a3.01,3.01,0,0,0-2.063.885l-1.071,1.068a3.027,3.027,0,0,0,0,4.277l3.038,3.037L148.313,162.7a3.015,3.015,0,0,1-2.138.886" transform="translate(-136.146 -110.242)" fill="#f58057" fill-rule="evenodd"/>
      <path id="Path_2030" data-name="Path 2030" d="M216.543,163.783h-.13a3.008,3.008,0,0,1-2.073-.887l-13.711-13.711,3.088-3.088a3.025,3.025,0,0,0,0-4.276l-1.07-1.068a3.035,3.035,0,0,0-1.462-.812,3.026,3.026,0,0,1,1.752.862l16.748,16.748a3.028,3.028,0,0,1,0,4.277l-1.071,1.068a3,3,0,0,1-2.071.887" transform="translate(-174.8 -110.386)" fill="#ef5518" fill-rule="evenodd"/>
      <path id="Path_2031" data-name="Path 2031" d="M192.963,149.062l-3.053-3.054a3.039,3.039,0,0,1,0-4.3l1.075-1.076a3.029,3.029,0,0,1,2.076-.89h.153a2.91,2.91,0,0,1,.308.024,3.027,3.027,0,0,1,1.472.816l1.075,1.074a3.038,3.038,0,0,1,0,4.3Z" transform="translate(-167.136 -110.2)" fill="#ea3518" fill-rule="evenodd"/>
      <path id="Path_2032" data-name="Path 2032" d="M286.81,145.891h-1.762v-7.55H283.3v-1.656h5.262v1.656H286.81Z" transform="translate(-229.382 -108.175)" fill="#fff" fill-rule="evenodd"/>
      <path id="Path_2033" data-name="Path 2033" d="M306.569,145.891h-4.838v-9.206h4.788v1.63h-3.04v2.13h2.684v1.631h-2.684v2.184h3.09Z" transform="translate(-241.551 -108.175)" fill="#fff" fill-rule="evenodd"/>
      <path id="Path_2034" data-name="Path 2034" d="M321.769,145.787h0c-2.052,0-3.353-1.605-3.353-4.6v-.209c0-3,1.473-4.607,3.46-4.607a2.985,2.985,0,0,1,2.195.9l-1,1.408a1.753,1.753,0,0,0-1.209-.618c-.908,0-1.643,1.012-1.643,2.986v.064c0,2.107.789,3,1.616,3a1.819,1.819,0,0,0,1.316-.685l.933,1.369a3.24,3.24,0,0,1-2.315,1" transform="translate(-252.568 -107.965)" fill="#fff" fill-rule="evenodd"/>
      <path id="Path_2035" data-name="Path 2035" d="M343.707,145.891h-1.763v-3.8h-2.25v3.8h-1.761v-9.206h1.761v3.747h2.25v-3.747h1.763Z" transform="translate(-265.453 -108.175)" fill="#fff" fill-rule="evenodd"/>
      <path id="Path_2036" data-name="Path 2036" d="M365.083,145.891h-1.526l-2.722-5.235v5.235h-1.724v-9.206h1.632l2.615,5.025v-5.025h1.725Z" transform="translate(-279.436 -108.175)" fill="#fff" fill-rule="evenodd"/>
      <path id="Path_2037" data-name="Path 2037" d="M383.478,137.873c-.879,0-1.538.961-1.538,3.038v.172c0,2.078.671,3.051,1.551,3.051s1.54-.961,1.54-3.037v-.172c0-2.078-.671-3.052-1.554-3.052m0,7.879h0c-1.985,0-3.337-1.7-3.337-4.59v-.3c0-2.907,1.366-4.6,3.351-4.6s3.343,1.7,3.343,4.589v.3C386.835,144.042,385.465,145.752,383.478,145.752Z" transform="translate(-293.321 -107.891)" fill="#fff" fill-rule="evenodd"/>
      <path id="Path_2038" data-name="Path 2038" d="M407.813,145.891h-4.526v-9.206h1.762v7.562h2.764Z" transform="translate(-308.603 -108.175)" fill="#fff" fill-rule="evenodd"/>
      <path id="Path_2039" data-name="Path 2039" d="M420.876,137.873c-.88,0-1.539.961-1.539,3.038v.172c0,2.078.671,3.051,1.553,3.051s1.538-.961,1.538-3.037v-.172c0-2.078-.671-3.052-1.553-3.052m0,7.879h0c-1.985,0-3.341-1.7-3.341-4.59v-.3c0-2.907,1.369-4.6,3.356-4.6s3.339,1.7,3.339,4.589v.3C424.23,144.042,422.863,145.752,420.876,145.752Z" transform="translate(-318.01 -107.891)" fill="#fff" fill-rule="evenodd"/>
      <path id="Path_2040" data-name="Path 2040" d="M443.581,145.787h0c-2.037,0-3.63-1.539-3.63-4.6v-.209c0-2.843,1.552-4.607,3.724-4.607a3.535,3.535,0,0,1,2.341.868l-.974,1.448a1.726,1.726,0,0,0-1.353-.646c-1.134,0-1.936,1.092-1.936,2.936v.181c0,2.133.909,3.013,1.948,3.013a1.477,1.477,0,0,0,.751-.184v-2H443.2v-1.552h2.893v4.562a4.563,4.563,0,0,1-2.514.792" transform="translate(-332.81 -107.965)" fill="#fff" fill-rule="evenodd"/>
      <path id="Path_2041" data-name="Path 2041" d="M463.589,145.891h-1.765v-3.631l-2.392-5.576h1.921l1.369,3.536,1.38-3.536h1.869l-2.38,5.564Z" transform="translate(-345.672 -108.175)" fill="#fff" fill-rule="evenodd"/>
      <path id="Path_2042" data-name="Path 2042" d="M287.464,110.14c-1.855,0-3.237-1.617-3.237-4.617v-.144c0-2.973,1.473-4.629,3.327-4.629a2.729,2.729,0,0,1,1.922.761l-.514.724a2.136,2.136,0,0,0-1.434-.618c-1.315,0-2.367,1.447-2.367,3.776v.092c0,2.393,1.053,3.788,2.355,3.788a2.215,2.215,0,0,0,1.5-.684l.5.711a2.976,2.976,0,0,1-2.051.84" transform="translate(-229.995 -84.402)" fill="#c4c3c3" stroke="#c4c3c3" stroke-width="0.5" fill-rule="evenodd"/>
      <path id="Path_2043" data-name="Path 2043" d="M305.158,102.233l-1.355,4.656h2.683Zm3.222,7.893h-.96l-.7-2.409h-3.155l-.7,2.409h-.908l2.721-9.261h.962Z" transform="translate(-241.704 -84.478)" fill="#c4c3c3" stroke="#c4c3c3" stroke-width="0.5" fill-rule="evenodd"/>
      <path id="Path_2044" data-name="Path 2044" d="M330.886,110.228h-.907v-7.379l-2.262,4.9h-.04l-2.25-4.893v7.367h-.895V101.02h.975l2.2,4.827,2.195-4.827h.988Z" transform="translate(-256.607 -84.58)" fill="#c4c3c3" stroke="#c4c3c3" stroke-width="0.5" fill-rule="evenodd"/>
      <path id="Path_2045" data-name="Path 2045" d="M349.383,101.859v3.314h1.158c1.21,0,1.932-.632,1.932-1.71v-.025c0-.974-.7-1.579-1.813-1.579Zm0,4.129v3.393h1.276c1.263,0,2.078-.6,2.078-1.67v-.027c0-1.078-.764-1.7-2.1-1.7Zm1.223,4.237h-2.145v-9.209h2.184a2.964,2.964,0,0,1,2.143.751,2.18,2.18,0,0,1,.606,1.551v.04a2.15,2.15,0,0,1-1.538,2.157,2.189,2.189,0,0,1,1.8,2.2v.052C353.656,109.317,352.447,110.225,350.606,110.225Z" transform="translate(-272.405 -84.578)" fill="#c4c3c3" stroke="#c4c3c3" stroke-width="0.5" fill-rule="evenodd"/>
      <path id="Path_2046" data-name="Path 2046" d="M368.742,101.872V105.8h1.027c1.63,0,2.289-.816,2.289-1.973v-.013a1.831,1.831,0,0,0-2.079-1.947Zm4.46,8.354h-1.053l-1.921-3.592a3.125,3.125,0,0,1-.353.013h-1.133v3.578h-.92v-9.209h2.224a3.046,3.046,0,0,1,2.2.791,2.727,2.727,0,0,1,.724,1.972v.039a2.557,2.557,0,0,1-1.815,2.606Z" transform="translate(-285.188 -84.578)" fill="#c4c3c3" stroke="#c4c3c3" stroke-width="0.5" fill-rule="evenodd"/>
      <rect id="Rectangle_1" data-name="Rectangle 1" width="0.918" height="9.208" transform="translate(89.37 16.439)" fill="#c4c3c3" stroke="#c4c3c3" stroke-width="0.5"/>
      <path id="Path_2047" data-name="Path 2047" d="M396.776,101.859v7.522h.945c1.658,0,2.791-1.326,2.791-3.683v-.157c0-2.341-1.133-3.682-2.791-3.682Zm.986,8.366h-1.907v-9.209h1.907c2.209,0,3.683,1.686,3.683,4.513v.184C401.445,108.528,399.971,110.225,397.762,110.225Z" transform="translate(-303.696 -84.578)" fill="#c4c3c3" stroke="#c4c3c3" stroke-width="0.5" fill-rule="evenodd"/>
      <path id="Path_2048" data-name="Path 2048" d="M419.342,110.14h0c-2.078,0-3.473-1.683-3.473-4.6v-.171c0-2.841,1.474-4.617,3.487-4.617h.039a3.047,3.047,0,0,1,2.049.723l-.525.775a2.18,2.18,0,0,0-1.551-.63c-1.434,0-2.564,1.407-2.564,3.76v.12c0,2.459,1.092,3.8,2.6,3.8a2.253,2.253,0,0,0,1.236-.355v-2.933h-1.762v-.843h2.646v4.261a3.8,3.8,0,0,1-2.185.71" transform="translate(-316.91 -84.402)" fill="#c4c3c3" stroke="#c4c3c3" stroke-width="0.5" fill-rule="evenodd"/>
      <path id="Path_2049" data-name="Path 2049" d="M441.9,110.228h-4.5V101.02h4.446v.854h-3.525v3.276h3.169v.855h-3.169v3.368H441.9Z" transform="translate(-331.126 -84.58)" fill="#c4c3c3" stroke="#c4c3c3" stroke-width="0.5" fill-rule="evenodd"/>
    </g>
  </g>
</svg>
